<?xml version="1.0" standalone="no"?>
<!DOCTYPE svg PUBLIC "-//W3C//DTD SVG 20010904//EN"
 "http://www.w3.org/TR/2001/REC-SVG-20010904/DTD/svg10.dtd">
<svg version="1.0" xmlns="http://www.w3.org/2000/svg"
 width="320.000000pt" height="320.000000pt" viewBox="0 0 320.000000 320.000000"
 preserveAspectRatio="xMidYMid meet">
<metadata>
Created by potrace 1.14, written by Peter Selinger 2001-2017
</metadata>
<g transform="translate(0.000000,320.000000) scale(0.100000,-0.100000)"
fill="#000000" stroke="none">
<path d="M0 1600 l0 -1600 1600 0 1600 0 0 1600 0 1600 -1600 0 -1600 0 0
-1600z m1692 816 c98 -8 174 -18 182 -25 8 -7 18 -37 22 -67 3 -30 9 -53 13
-52 214 106 333 138 514 138 l97 0 0 -202 0 -203 128 0 127 0 3 -227 2 -228
-130 0 -131 0 3 -185 3 -185 27 -26 c24 -24 36 -28 110 -32 120 -6 118 -4 118
-182 l0 -146 -117 -14 c-134 -17 -527 -16 -608 0 -61 13 -108 40 -131 76 -43
64 -46 120 -51 764 -3 338 -6 616 -7 617 -1 2 -61 -20 -132 -48 -71 -27 -223
-86 -338 -130 -115 -44 -222 -87 -237 -94 l-27 -15 -2 -184 -1 -185 73 -3 73
-3 0 -404 0 -403 -307 -2 -308 -1 0 393 0 392 -120 0 -120 0 2 228 3 227 115
2 115 2 5 119 c4 105 8 123 30 156 50 74 179 130 335 144 112 10 469 4 667
-12z"/>
</g>
</svg>
