<?xml version="1.0" standalone="no"?>
<!DOCTYPE svg PUBLIC "-//W3C//DTD SVG 20010904//EN"
 "http://www.w3.org/TR/2001/REC-SVG-20010904/DTD/svg10.dtd">
<svg version="1.0" xmlns="http://www.w3.org/2000/svg"
 width="320.000000pt" height="320.000000pt" viewBox="0 0 320.000000 320.000000"
 preserveAspectRatio="xMidYMid meet">
<metadata>
Created by potrace 1.14, written by Peter Selinger 2001-2017
</metadata>
<g transform="translate(0.000000,320.000000) scale(0.100000,-0.100000)"
fill="#000000" stroke="none">
<path d="M0 1600 l0 -1600 1600 0 1600 0 0 1600 0 1600 -1600 0 -1600 0 0
-1600z m1716 817 c86 -8 148 -18 158 -26 8 -7 19 -35 22 -62 4 -27 10 -49 14
-49 4 0 52 20 107 44 144 64 198 77 361 83 l142 6 0 -202 0 -201 130 0 130 0
0 -230 0 -230 -130 0 -130 0 0 -172 c0 -154 2 -177 20 -205 21 -35 75 -56 139
-53 100 5 101 3 101 -179 l0 -148 -87 -13 c-130 -18 -432 -24 -557 -11 -123
12 -176 35 -212 89 -44 65 -46 95 -51 754 l-5 627 -36 -13 c-20 -8 -95 -36
-167 -64 -71 -28 -195 -76 -275 -107 -80 -31 -169 -66 -197 -77 l-53 -22 0
-188 0 -188 70 0 70 0 0 -410 0 -410 -310 2 -311 3 -2 390 -2 390 -117 3 -118
3 0 229 0 230 118 0 119 0 2 111 c2 127 17 170 74 213 61 46 173 84 297 100
61 8 540 -4 686 -17z"/>
</g>
</svg>
